<?xml version="1.0" encoding="utf-8"?>
<!-- Generator: Adobe Illustrator 20.1.0, SVG Export Plug-In . SVG Version: 6.00 Build 0)  -->
<svg version="1.1" id="Warstwa_1" xmlns="http://www.w3.org/2000/svg" xmlns:xlink="http://www.w3.org/1999/xlink" x="0px" y="0px"
	 viewBox="0 0 100 100" style="enable-background:new 0 0 100 100;" xml:space="preserve">
<style type="text/css">
	.st0{fill:#00BDFF;}
</style>
<g id="Layer_1">
</g>
<g id="Kwadrat">
</g>
<g id="Sylwetka">
</g>
<g id="Nazwa">
</g>
<g id="Tag">
</g>
<g>
	<polygon class="st0" points="45.5,28.4 43.2,30.7 43.2,37.8 41.6,39.4 43.5,46.1 47.6,50.4 50,50.4 50,28.4 	"/>
	<polygon class="st0" points="4.8,41.2 16.1,28 26.1,28 27.9,29.7 27.9,35.4 20.8,35.4 17.8,32.4 17.9,32.9 18.1,35.1 14.9,45.3 
		11.1,50.5 17.3,45.9 23.2,45.9 27.6,51.1 27.6,47 40.1,47 48.2,55.3 48.2,68.6 45.2,72 39,72 25.6,58.6 25.6,62.5 12.9,62.5 
		1,50.7 	"/>
	<polygon class="st0" points="95.2,41.2 83.9,28 73.9,28 72,29.7 72,35.4 79.2,35.4 82.2,32.4 82.1,32.9 81.9,35.1 85.1,45.3 
		88.9,50.5 82.7,45.9 76.8,45.9 72.3,51.1 72.3,47 59.8,47 51.6,55.3 51.6,68.6 54.8,72 61,72 74.2,58.6 74.2,62.5 87.1,62.5 
		99,50.7 	"/>
	<polygon class="st0" points="54.6,28.4 57,30.7 57,37.8 58.5,39.4 56.5,46.1 52.4,50.4 50,50.4 50,28.4 	"/>
	<rect x="49.6" y="28.6" class="st0" width="0.8" height="21.7"/>
</g>
</svg>
