<?xml version="1.0" encoding="utf-8"?>
<!-- Generator: Adobe Illustrator 21.0.2, SVG Export Plug-In . SVG Version: 6.00 Build 0)  -->
<svg version="1.1" id="Warstwa_1" xmlns="http://www.w3.org/2000/svg" xmlns:xlink="http://www.w3.org/1999/xlink" x="0px" y="0px"
	 viewBox="0 0 195.62199 40" style="enable-background:new 0 0 195.62199 40;" xml:space="preserve">
<style type="text/css">
	.st0{fill:#28B8EB;}
</style>
<g>
	
		<rect x="120.8653" y="19.41716" transform="matrix(-1.836970e-16 1 -1 -1.836970e-16 156.82988 -86.11458)" class="st0" width="1.21384" height="31.88098"/>
	<rect x="105.53934" y="1.49832" class="st0" width="4.8536" height="23.87969"/>
	<rect x="124.95373" y="1.49832" class="st0" width="5.24188" height="23.87969"/>
	<rect x="134.85506" y="1.49832" class="st0" width="4.8536" height="23.87969"/>
	<rect x="159.70547" y="9.26407" class="st0" width="4.8536" height="9.12476"/>
	<rect x="190.3802" y="11.39965" class="st0" width="5.24188" height="13.97836"/>
	<rect x="169.21852" y="1.49832" class="st0" width="4.8536" height="14.75493"/>
	<rect x="169.21852" y="1.49832" class="st0" width="26.40356" height="5.24188"/>
	<polygon class="st0" points="105.53934,16.35032 164.55907,16.25325 164.55907,11.26375 105.53934,11.36082 	"/>
	<polygon class="st0" points="169.21852,16.35032 195.62209,16.25325 195.62209,11.26375 169.21852,11.36082 	"/>
	<rect x="134.85506" y="1.49832" class="st0" width="29.89815" height="5.24188"/>
	<rect x="134.85506" y="20.71856" class="st0" width="60.76702" height="4.65945"/>
	<g>
		<path class="st0" d="M145.93286,36.67555h-3.00125l-0.57376,1.71211h-1.82062l3.09688-8.31413h1.58522l3.11159,8.31413h-1.8206
			L145.93286,36.67555z M143.39136,35.28711h2.07808l-1.04456-3.11159L143.39136,35.28711z"/>
		<path class="st0" d="M155.51407,35.61813c-0.06621,0.8956-0.39355,1.59993-0.98938,2.11301
			c-0.59584,0.51308-1.38293,0.77054-2.3576,0.77054c-1.06662,0-1.90154-0.3586-2.51576-1.07582
			c-0.61055-0.71721-0.91582-1.70292-0.91582-2.95528v-0.50756c0-0.79996,0.14345-1.5043,0.42297-2.11301
			c0.2832-0.60871,0.68411-1.07582,1.20638-1.40132c0.52596-0.3255,1.13283-0.48917,1.8243-0.48917
			c0.95996,0,1.73235,0.25746,2.32082,0.77238c0.58481,0.51308,0.92319,1.23397,1.01514,2.16267h-1.71394
			c-0.04047-0.53699-0.19127-0.92502-0.44873-1.16777c-0.25377-0.24091-0.64732-0.36228-1.17328-0.36228
			c-0.57008,0-0.99673,0.20413-1.27994,0.61423c-0.28322,0.40826-0.43033,1.04456-0.43768,1.90337v0.62894
			c0,0.89743,0.13608,1.55396,0.40825,1.96957c0.27217,0.41562,0.7025,0.62159,1.28731,0.62159
			c0.52963,0,0.92317-0.11954,1.18431-0.36229c0.26114-0.24091,0.41194-0.61607,0.44872-1.12179H155.51407z"/>
		<path class="st0" d="M161.33267,36.67555h-3.00125l-0.57378,1.71211h-1.8206l3.09688-8.31413h1.58522l3.11159,8.31413h-1.82062
			L161.33267,36.67555z M158.79117,35.28711h2.07808l-1.04456-3.11159L158.79117,35.28711z"/>
		<path class="st0" d="M164.50679,38.38766v-8.31413h2.55989c0.72824,0,1.38293,0.16551,1.96037,0.49469
			c0.57745,0.32918,1.02617,0.79813,1.34984,1.405c0.32365,0.60687,0.48549,1.2965,0.48549,2.06888v0.38251
			c0,0.77422-0.15816,1.46017-0.47813,2.06152c-0.31631,0.60135-0.76503,1.06846-1.34248,1.39948
			c-0.58112,0.33102-1.23213,0.49837-1.96037,0.50205H164.50679z M166.22073,31.46198v5.55011h0.82756
			c0.66939,0,1.18063-0.21884,1.53372-0.65652c0.35677-0.43768,0.53699-1.06479,0.54434-1.87946v-0.43952
			c0-0.8441-0.17654-1.48592-0.52596-1.92176c-0.34941-0.43584-0.86064-0.65285-1.53372-0.65285H166.22073z"/>
		<path class="st0" d="M177.10764,34.77402h-3.28813v2.23807h3.85822v1.37557h-5.57217v-8.31413h5.56114v1.38845h-3.84718v1.98061
			h3.28813V34.77402z"/>
		<path class="st0" d="M180.92172,30.07353l2.13692,6.03009l2.12221-6.03009h2.25095v8.31413h-1.71762v-2.27301l0.16917-3.92259
			l-2.24358,6.1956h-1.17696l-2.23624-6.19008l0.16919,3.91708v2.27301h-1.71027v-8.31413H180.92172z"/>
		<path class="st0" d="M191.63208,33.81958l1.73233-3.74605h1.87212l-2.72908,5.3v3.01413h-1.74338v-3.01413l-2.72908-5.3h1.87946
			L191.63208,33.81958z"/>
	</g>
	<g>
		<polygon class="st0" points="40.42483,0.3956 38.34424,2.50549 38.34424,8.96703 36.87904,10.38828 38.62263,16.43956 
			42.31494,20.3663 44.49809,20.3663 44.49809,0.3956 		"/>
		<polygon class="st0" points="3.42849,11.98535 13.7142,0 22.76915,0 24.42483,1.56777 24.42483,6.73993 17.93398,6.73993 
			15.26732,4.05861 15.32592,4.51282 15.5457,6.46154 12.62996,15.70696 9.20138,20.41026 14.81311,16.26374 20.14644,16.26374 
			24.13179,21.04029 24.13179,17.28938 35.53105,17.28938 42.88636,24.79121 42.88636,36.89377 40.13179,40 34.47611,40 
			22.37354,27.82417 22.37354,31.35531 10.81311,31.35531 -0.00008,20.60073 		"/>
		<polygon class="st0" points="85.53838,11.98535 75.23801,0 66.19772,0 64.42483,1.56777 64.42483,6.73993 71.03288,6.73993 
			73.69955,4.05861 73.64095,4.51282 73.42117,6.46154 76.33691,15.70696 79.76549,20.41026 74.15377,16.26374 68.82043,16.26374 
			64.71786,21.04029 64.71786,17.28938 53.42116,17.28938 45.96329,24.79121 45.96329,36.89377 48.82043,40 54.49076,40 
			66.47611,27.82417 66.47611,31.35531 78.15376,31.35531 88.96695,20.60073 		"/>
		<polygon class="st0" points="48.6446,0.3956 50.79845,2.50549 50.79845,8.96703 52.17574,10.38828 50.3882,16.43956 
			46.63728,20.3663 44.49809,20.3663 44.49809,0.3956 		"/>
		<rect x="44.16109" y="0.54212" class="st0" width="0.7326" height="19.67766"/>
	</g>
</g>
</svg>
